<svg viewBox="0 0 64.00 64.00" xmlns="http://www.w3.org/2000/svg" xmlns:xlink="http://www.w3.org/1999/xlink" aria-hidden="true" role="img" class="iconify iconify--emojione-monotone" preserveAspectRatio="xMidYMid meet" fill="#ffffff" stroke="#ffffff" stroke-width="0.00064" transform="rotate(180)"><g id="SVGRepo_bgCarrier" stroke-width="0"></g><g id="SVGRepo_tracerCarrier" stroke-linecap="round" stroke-linejoin="round" stroke="#d1d1d1" stroke-width="4.992"><path d="M32 2C15.432 2 2 15.432 2 32c0 16.568 13.432 30 30 30s30-13.432 30-30C62 15.432 48.568 2 32 2zm1.693 46V37.428H15V27.143h18.693V16L49 32L33.693 48z" fill="#000000"></path></g><g id="SVGRepo_iconCarrier"><path d="M32 2C15.432 2 2 15.432 2 32c0 16.568 13.432 30 30 30s30-13.432 30-30C62 15.432 48.568 2 32 2zm1.693 46V37.428H15V27.143h18.693V16L49 32L33.693 48z" fill="#000000"></path></g></svg>